<?xml version="1.0" encoding="UTF-8"?>
<svg id="_レイヤー_1" xmlns="http://www.w3.org/2000/svg" version="1.1" viewBox="0 0 120 132.18">
  <!-- Generator: Adobe Illustrator 30.0.0, SVG Export Plug-In . SVG Version: 2.1.1 Build 123)  -->
  <defs>
    <style>
      .st0 {
        fill: #010163;
      }
    </style>
  </defs>
  <g id="JGDA">
    <g>
      <path class="st0" d="M19.36,44.49h0V1.7C19.36.76,20.12,0,21.06,0h12.82C34.82,0,35.58.76,35.58,1.7v26.56c0,8.96-7.26,16.22-16.22,16.22"/>
      <path class="st0" d="M15.7,44.49h0v-10.86c0-.94-.76-1.7-1.7-1.7H3.14c0,6.94,5.62,12.56,12.56,12.56"/>
      <path class="st0" d="M36.4,61.76c-2.88-6.13-8.92-10.48-16.03-10.94-.54-.03-1.01.41-1.01.95v9.99s17.04,0,17.04,0Z"/>
      <path class="st0" d="M20.34,88.93c9.47-.61,17.06-8.9,17.8-18.33.04-.53-.39-.99-.92-.99h-17.85v18.4c0,.53.45.96.98.92"/>
      <path class="st0" d="M0,69.87c0,8.96,6.17,16.47,14.49,18.54.61.15,1.21-.31,1.21-.94v-35.2c0-.63-.6-1.09-1.21-.94C6.17,53.4,0,60.91,0,69.87"/>
      <path class="st0" d="M54.33,107.55h-11.04c-.93,0-1.67-.75-1.67-1.67v-34.33c0-.93.75-1.67,1.67-1.67h11.04c.93,0,1.67.75,1.67,1.67v34.33c0,.93-.75,1.67-1.67,1.67"/>
      <path class="st0" d="M75.36,88.84c0-9.15-6.44-16.79-15.03-18.66-.35-.08-.67.18-.67.54v36.24c0,.35.33.61.67.54,8.59-1.87,15.03-9.51,15.03-18.66"/>
      <path class="st0" d="M43.97,132.41h-17.17c.09-4.35-.35-11.36-3-18.23-1.53-3.96-2.6-6.03-3.39-7.08l10.42-14.45c3.75,4.43,6.77,9.59,8.99,15.35,2.89,7.51,4.32,15.95,4.14,24.41"/>
      <path class="st0" d="M24.86,124.82c0,4.19-3.4,7.59-7.59,7.59s-7.59-3.4-7.59-7.59,3.4-7.59,7.59-7.59,7.59,3.4,7.59,7.59"/>
      <path class="st0" d="M46.17,9.72c0,2.57-1.23,3.35-2.83,3.35-.45,0-.98-.09-1.25-.21l.16-.9c.25.09.61.17,1.02.17,1.16,0,1.82-.51,1.82-2.5V2.88h1.09v6.84h0Z"/>
      <path class="st0" d="M52.71,11.2c0,.59,0,1.21.1,1.71h-1l-.1-.92h-.04c-.37.57-1.11,1.08-2.12,1.08-1.37,0-2.1-1-2.1-2.04,0-1.73,1.5-2.66,4.17-2.65,0-.61,0-1.98-1.63-1.98-.62,0-1.27.17-1.75.51l-.26-.75c.58-.38,1.38-.61,2.19-.61,2.03,0,2.56,1.44,2.56,2.86v2.78h-.02ZM51.62,9.18c-1.36,0-3.06.2-3.06,1.71,0,.92.58,1.33,1.24,1.33,1.07,0,1.82-.82,1.82-1.69v-1.36h0Z"/>
      <path class="st0" d="M55.58,6.94c.5-.88,1.33-1.38,2.45-1.38,1.7,0,2.93,1.46,2.93,3.66,0,2.64-1.54,3.85-3.12,3.85-.95,0-1.74-.44-2.16-1.15h-.03v3.93h-1.09v-7.82c0-.94-.03-1.66-.05-2.32h.99l.07,1.23h.03s-.02,0-.02,0ZM55.65,10.05c0,1.4,1.04,2.14,2.02,2.14,1.41,0,2.19-1.21,2.19-2.93,0-1.49-.75-2.81-2.15-2.81-1.23,0-2.06,1.19-2.06,2.23,0,0,0,1.37,0,1.37Z"/>
      <path class="st0" d="M67.05,11.2c0,.59.01,1.21.1,1.71h-1l-.1-.92h-.04c-.37.57-1.11,1.08-2.12,1.08-1.37,0-2.1-1-2.1-2.04,0-1.73,1.5-2.66,4.17-2.65,0-.61,0-1.98-1.63-1.98-.62,0-1.27.17-1.75.51l-.26-.75c.58-.38,1.38-.61,2.19-.61,2.03,0,2.56,1.44,2.56,2.86v2.78h-.02ZM65.97,9.18c-1.36,0-3.06.2-3.06,1.71,0,.92.58,1.33,1.24,1.33,1.07,0,1.82-.82,1.82-1.69v-1.36h0Z"/>
      <path class="st0" d="M74.64,12.91h-1.09v-4.24c0-1.17-.42-2.2-1.67-2.2-.94,0-1.89.79-1.89,2.04v4.4h-1.09v-5.34c0-.74-.03-1.28-.05-1.86h.98l.07,1.17h.03c.36-.7,1.19-1.33,2.31-1.33.9,0,2.42.54,2.42,2.98v4.38h-.02Z"/>
      <path class="st0" d="M50.28,29.13c-.54.21-1.59.51-2.86.51-3.94,0-4.88-2.94-4.88-5.06,0-3.06,1.99-5.18,5.14-5.18.96,0,1.82.18,2.32.42l-.29.91c-.49-.22-1.12-.41-2.06-.41-2.37,0-3.97,1.53-3.97,4.19s1.52,4.23,3.81,4.23c.84,0,1.41-.13,1.7-.29v-3.22h-2.03v-.88h3.11v4.77h.01Z"/>
      <path class="st0" d="M58.02,25.88c0,2.68-1.77,3.81-3.36,3.81-1.85,0-3.27-1.38-3.27-3.7,0-2.45,1.53-3.81,3.36-3.81,1.96,0,3.27,1.5,3.27,3.7M54.71,23.04c-1.56,0-2.2,1.53-2.2,2.91,0,1.59.88,2.89,2.18,2.89s2.21-1.29,2.21-2.91c0-1.28-.62-2.89-2.19-2.89"/>
      <rect class="st0" x="59.42" y="18.99" width="1.09" height="10.54"/>
      <path class="st0" d="M62.54,22.35c0-.9,0-2.07.79-2.87.47-.46,1.09-.65,1.66-.65.46,0,.83.1,1.07.21l-.18.86c-.2-.08-.45-.17-.83-.17-1.13,0-1.41,1.06-1.41,2.21v.41h1.74v.86h-1.74v6.33h-1.09v-6.33h-.99v-.86h.99s0,0-.01,0Z"/>
      <path class="st0" d="M43.12,36.25c.74-.12,1.6-.21,2.53-.21,4.03,0,5.19,2.39,5.19,4.85,0,1.59-.42,2.95-1.37,3.94-.88.91-2.35,1.41-4.18,1.41-.83,0-1.54-.03-2.18-.11v-9.89h.01ZM44.22,45.29c.33.05.8.07,1.28.07,2.72,0,4.2-1.54,4.2-4.42,0-2.61-1.4-4.02-4.01-4.02-.63,0-1.13.07-1.48.13v8.24h0Z"/>
      <path class="st0" d="M57.29,45.86c-.41.2-1.16.45-2.25.45-2.1,0-3.35-1.48-3.35-3.62s1.26-3.87,3.2-3.87c2.21,0,2.78,2.03,2.78,3.28,0,.25,0,.43-.03.61h-4.89c0,1.99,1.15,2.74,2.44,2.74.9,0,1.44-.18,1.88-.37l.21.79h0ZM56.59,41.88c0-.98-.4-2.24-1.81-2.24-1.32,0-1.9,1.25-2,2.24h3.81Z"/>
      <path class="st0" d="M64.57,38.98l-2.73,7.18h-1.03l-2.65-7.2h1.17l1.44,4.18c.22.65.42,1.25.58,1.84h.04c.16-.59.37-1.2.59-1.84l1.42-4.17h1.17Z"/>
      <path class="st0" d="M70.63,45.86c-.41.2-1.16.45-2.25.45-2.1,0-3.35-1.48-3.35-3.62s1.26-3.87,3.2-3.87c2.21,0,2.78,2.03,2.78,3.28,0,.25-.01.43-.03.61h-4.89c.01,1.99,1.15,2.74,2.44,2.74.9,0,1.44-.18,1.88-.37l.21.79h.01ZM69.93,41.88c.01-.98-.4-2.24-1.81-2.24-1.32,0-1.9,1.25-2,2.24h3.81Z"/>
      <rect class="st0" x="72.39" y="35.61" width="1.09" height="10.54"/>
      <path class="st0" d="M81.49,42.51c0,2.68-1.77,3.81-3.36,3.81-1.85,0-3.27-1.38-3.27-3.7,0-2.45,1.53-3.81,3.36-3.81,1.96,0,3.27,1.5,3.27,3.7M78.19,39.66c-1.56,0-2.2,1.53-2.2,2.91,0,1.59.88,2.89,2.18,2.89s2.21-1.29,2.21-2.91c0-1.28-.62-2.89-2.19-2.89"/>
      <path class="st0" d="M83.92,40.19c.5-.88,1.33-1.38,2.45-1.38,1.7,0,2.93,1.46,2.93,3.66,0,2.64-1.54,3.85-3.12,3.85-.95,0-1.74-.44-2.16-1.15h-.03v3.93h-1.09v-7.82c0-.94-.03-1.66-.05-2.32h.99l.07,1.23h.03s-.02,0-.02,0ZM83.99,43.3c0,1.4,1.04,2.14,2.02,2.14,1.41,0,2.19-1.21,2.19-2.93,0-1.49-.75-2.81-2.15-2.81-1.23,0-2.06,1.19-2.06,2.23v1.37Z"/>
      <path class="st0" d="M100.46,46.16h-1.08v-4.15c0-1.4-.5-2.29-1.58-2.29-.88,0-1.69.83-1.69,1.92v4.52h-1.08v-4.43c0-1.15-.49-2.02-1.5-2.02-.94,0-1.77.92-1.77,2.04v4.4h-1.08v-5.34c0-.74-.03-1.26-.05-1.86h.96l.07,1.16h.04c.4-.7,1.05-1.32,2.19-1.32.94,0,1.66.58,1.96,1.44h.03c.48-.86,1.2-1.44,2.31-1.44.88,0,2.28.57,2.28,3.03v4.34h0Z"/>
      <path class="st0" d="M107.41,45.86c-.41.2-1.16.45-2.25.45-2.1,0-3.35-1.48-3.35-3.62s1.26-3.87,3.2-3.87c2.21,0,2.78,2.03,2.78,3.28,0,.25-.01.43-.03.61h-4.89c.01,1.99,1.15,2.74,2.44,2.74.9,0,1.44-.18,1.88-.37l.21.79h.01ZM106.71,41.88c.01-.98-.4-2.24-1.81-2.24-1.32,0-1.9,1.25-2,2.24h3.81Z"/>
      <path class="st0" d="M114.91,46.16h-1.09v-4.24c0-1.17-.42-2.2-1.67-2.2-.94,0-1.89.79-1.89,2.04v4.4h-1.09v-5.34c0-.74-.03-1.28-.05-1.86h.98l.07,1.17h.03c.36-.7,1.19-1.33,2.31-1.33.9,0,2.43.54,2.43,2.98v4.38s-.03,0-.03,0Z"/>
      <path class="st0" d="M117.06,37.67l1.08-.37v1.67h1.86v.86h-1.86v4.15c0,.91.28,1.41.98,1.41.33,0,.55-.04.74-.1l.07.84c-.24.11-.61.17-1.07.17-1.74,0-1.79-1.58-1.79-2.35v-4.13h-1.11v-.86h1.11v-1.31.02h-.01Z"/>
      <path class="st0" d="M50.31,62.78h-1.16l-1.08-3.26h-3.49l-1.06,3.26h-1.12l3.32-10.04h1.27s3.32,10.04,3.32,10.04ZM47.84,58.66l-.99-2.98c-.21-.69-.38-1.32-.51-1.91h-.04c-.13.61-.32,1.24-.5,1.87l-1,3.02h3.04Z"/>
      <path class="st0" d="M54.83,56.69c-.26-.17-.75-.42-1.4-.42-.79,0-1.21.49-1.21,1.07,0,.62.41.91,1.33,1.31,1.16.48,1.83,1.08,1.83,2.16,0,1.28-.98,2.12-2.54,2.12-.71,0-1.4-.2-1.89-.49l.3-.84c.38.22,1,.49,1.62.49.96,0,1.44-.51,1.44-1.16s-.38-1.04-1.33-1.42c-1.21-.49-1.83-1.16-1.83-2.03,0-1.12.9-2.04,2.35-2.04.69,0,1.27.2,1.65.44l-.32.83s0-.02,0-.02Z"/>
      <path class="st0" d="M60.15,56.69c-.26-.17-.75-.42-1.4-.42-.79,0-1.21.49-1.21,1.07,0,.62.41.91,1.33,1.31,1.16.48,1.83,1.08,1.83,2.16,0,1.28-.98,2.12-2.54,2.12-.71,0-1.4-.2-1.89-.49l.3-.84c.38.22,1,.49,1.62.49.96,0,1.44-.51,1.44-1.16s-.38-1.04-1.33-1.42c-1.21-.49-1.83-1.16-1.83-2.03,0-1.12.9-2.04,2.35-2.04.68,0,1.27.2,1.65.44l-.32.83s0-.02,0-.02Z"/>
      <path class="st0" d="M68.22,59.13c0,2.68-1.77,3.81-3.36,3.81-1.85,0-3.27-1.38-3.27-3.7,0-2.45,1.53-3.81,3.36-3.81,1.96,0,3.27,1.5,3.27,3.7M64.91,56.29c-1.56,0-2.2,1.53-2.2,2.91,0,1.59.88,2.89,2.18,2.89s2.21-1.29,2.21-2.91c0-1.28-.62-2.89-2.19-2.89"/>
      <path class="st0" d="M74.47,62.52c-.32.16-1.03.41-1.95.41-2.06,0-3.41-1.46-3.41-3.66s1.46-3.84,3.68-3.84c.8,0,1.45.24,1.73.38l-.28.88c-.3-.17-.78-.37-1.48-.37-1.66,0-2.53,1.33-2.53,2.87,0,1.74,1.04,2.83,2.49,2.83.71,0,1.2-.2,1.56-.35l.2.84h0Z"/>
      <path class="st0" d="M76.28,54.33c-.42,0-.71-.33-.71-.75s.3-.74.73-.74.71.33.71.74c0,.46-.3.75-.73.75M76.83,62.78h-1.09v-7.18h1.09v7.18Z"/>
      <path class="st0" d="M83.45,61.07c0,.59.01,1.21.1,1.71h-1l-.1-.92h-.04c-.37.57-1.11,1.08-2.12,1.08-1.37,0-2.1-1-2.1-2.04,0-1.73,1.5-2.66,4.17-2.65,0-.61,0-1.98-1.63-1.98-.62,0-1.27.17-1.75.51l-.26-.75c.58-.38,1.38-.61,2.19-.61,2.03,0,2.56,1.44,2.56,2.86v2.78h-.02ZM82.37,59.05c-1.36,0-3.06.2-3.06,1.71,0,.92.58,1.33,1.24,1.33,1.07,0,1.82-.82,1.82-1.69v-1.36h0Z"/>
      <path class="st0" d="M85.58,54.3l1.08-.37v1.67h1.86v.86h-1.86v4.15c0,.91.28,1.41.98,1.41.33,0,.55-.04.74-.1l.07.84c-.24.1-.61.17-1.07.17-1.74,0-1.79-1.58-1.79-2.35v-4.13h-1.11v-.86h1.11v-1.31.02h-.01Z"/>
      <path class="st0" d="M90.24,54.33c-.42,0-.71-.33-.71-.75s.3-.74.73-.74.71.33.71.74c0,.46-.3.75-.73.75M90.79,62.78h-1.09v-7.18h1.09v7.18Z"/>
      <path class="st0" d="M98.8,59.13c0,2.68-1.77,3.81-3.36,3.81-1.85,0-3.27-1.38-3.27-3.7,0-2.45,1.53-3.81,3.36-3.81,1.96,0,3.27,1.5,3.27,3.7M95.49,56.29c-1.56,0-2.2,1.53-2.2,2.91,0,1.59.88,2.89,2.18,2.89s2.21-1.29,2.21-2.91c0-1.28-.62-2.89-2.19-2.89"/>
      <path class="st0" d="M105.95,62.78h-1.09v-4.24c0-1.17-.42-2.2-1.67-2.2-.94,0-1.89.79-1.89,2.04v4.4h-1.09v-5.34c0-.74-.03-1.28-.05-1.86h.98l.07,1.17h.03c.36-.7,1.19-1.33,2.31-1.33.9,0,2.42.54,2.42,2.98v4.38h-.02Z"/>
    </g>
  </g>
</svg>