<?xml version="1.0" encoding="UTF-8"?>
<svg id="_レイヤー_1" xmlns="http://www.w3.org/2000/svg" version="1.1" viewBox="0 0 1729.98 331.02">
  <!-- Generator: Adobe Illustrator 30.0.0, SVG Export Plug-In . SVG Version: 2.1.1 Build 123)  -->
  <defs>
    <style>
      .st0 {
        fill: #fff;
      }
    </style>
  </defs>
  <g id="JGDA">
    <g>
      <path class="st0" d="M48.41,111.21h0V4.25c0-2.35,1.9-4.25,4.25-4.25h32.06c2.35,0,4.25,1.9,4.25,4.25v66.4c0,22.4-18.16,40.56-40.56,40.56"/>
      <path class="st0" d="M39.25,111.21h0v-27.14c0-2.35-1.91-4.26-4.26-4.26H7.85c0,17.34,14.06,31.4,31.4,31.4"/>
      <path class="st0" d="M90.99,154.39c-7.2-15.33-22.31-26.19-40.07-27.36-1.36-.09-2.51,1.01-2.51,2.38v24.98h42.59-.01Z"/>
      <path class="st0" d="M50.85,222.31c23.68-1.52,42.65-22.24,44.5-45.83.11-1.34-.97-2.47-2.31-2.47h-44.63v45.99c0,1.33,1.12,2.39,2.44,2.31"/>
      <path class="st0" d="M0,174.67c0,22.4,15.42,41.18,36.23,46.34,1.53.38,3.02-.76,3.02-2.35v-87.99c0-1.58-1.49-2.72-3.02-2.35C15.42,133.49,0,152.27,0,174.67"/>
      <path class="st0" d="M135.81,268.87h-27.61c-2.31,0-4.19-1.87-4.19-4.19v-85.83c0-2.31,1.87-4.19,4.19-4.19h27.61c2.31,0,4.19,1.87,4.19,4.19v85.83c0,2.31-1.87,4.19-4.19,4.19"/>
      <path class="st0" d="M188.41,222.1c0-22.88-16.09-41.98-37.57-46.65-.86-.19-1.68.46-1.68,1.35v90.61c0,.88.82,1.53,1.68,1.35,21.48-4.67,37.57-23.77,37.57-46.65"/>
      <path class="st0" d="M109.92,331.02h-42.93c.23-10.89-.87-28.4-7.49-45.58-3.81-9.9-6.5-15.07-8.46-17.69l26.05-36.12c9.37,11.07,16.94,23.98,22.48,38.37,7.23,18.77,10.81,39.87,10.35,61.02"/>
      <path class="st0" d="M62.15,312.05c0,10.48-8.49,18.97-18.97,18.97s-18.97-8.49-18.97-18.97,8.49-18.97,18.97-18.97,18.97,8.49,18.97,18.97"/>
      <path class="st0" d="M115.42,24.3c0,6.42-3.06,8.37-7.09,8.37-1.12,0-2.44-.23-3.13-.53l.39-2.24c.63.23,1.52.43,2.54.43,2.9,0,4.55-1.29,4.55-6.26V7.2h2.74s0,17.1,0,17.1Z"/>
      <path class="st0" d="M131.76,27.99c0,1.49.03,3.03.26,4.28h-2.5l-.26-2.3h-.1c-.92,1.42-2.77,2.7-5.31,2.7-3.43,0-5.24-2.5-5.24-5.11,0-4.32,3.76-6.66,10.41-6.62,0-1.52,0-4.94-4.08-4.94-1.55,0-3.16.43-4.38,1.28l-.66-1.88c1.45-.96,3.46-1.52,5.47-1.52,5.07,0,6.39,3.59,6.39,7.15v6.95h0ZM129.06,22.95c-3.39,0-7.64.49-7.64,4.28,0,2.31,1.45,3.33,3.1,3.33,2.67,0,4.55-2.04,4.55-4.22v-3.39h0Z"/>
      <path class="st0" d="M138.95,17.35c1.25-2.21,3.33-3.46,6.13-3.46,4.25,0,7.32,3.66,7.32,9.16,0,6.59-3.86,9.62-7.81,9.62-2.37,0-4.35-1.09-5.4-2.87h-.07v9.82h-2.74v-19.54c0-2.34-.07-4.15-.13-5.8h2.47l.17,3.06h.07-.01ZM139.11,25.12c0,3.49,2.6,5.34,5.04,5.34,3.52,0,5.47-3.03,5.47-7.31,0-3.72-1.88-7.02-5.37-7.02-3.07,0-5.14,2.97-5.14,5.57v3.43h0Z"/>
      <path class="st0" d="M167.62,27.99c0,1.49.03,3.03.26,4.28h-2.5l-.26-2.3h-.1c-.92,1.42-2.77,2.7-5.31,2.7-3.43,0-5.24-2.5-5.24-5.11,0-4.32,3.76-6.66,10.41-6.62,0-1.52,0-4.94-4.08-4.94-1.55,0-3.16.43-4.38,1.28l-.66-1.88c1.45-.96,3.46-1.52,5.47-1.52,5.07,0,6.39,3.59,6.39,7.15v6.95h0ZM164.91,22.95c-3.39,0-7.64.49-7.64,4.28,0,2.31,1.45,3.33,3.1,3.33,2.67,0,4.55-2.04,4.55-4.22v-3.39h-.01Z"/>
      <path class="st0" d="M186.6,32.27h-2.74v-10.61c0-2.93-1.05-5.5-4.18-5.5-2.34,0-4.71,1.98-4.71,5.11v11.01h-2.74v-13.35c0-1.85-.07-3.19-.13-4.64h2.44l.16,2.93h.07c.89-1.75,2.97-3.33,5.77-3.33,2.24,0,6.06,1.35,6.06,7.45v10.94h0Z"/>
      <path class="st0" d="M125.7,72.81c-1.35.53-3.99,1.29-7.15,1.29-9.85,0-12.19-7.35-12.19-12.66,0-7.64,4.97-12.95,12.85-12.95,2.41,0,4.55.46,5.8,1.05l-.73,2.27c-1.22-.56-2.8-1.02-5.14-1.02-5.93,0-9.92,3.82-9.92,10.48s3.79,10.58,9.52,10.58c2.11,0,3.52-.33,4.25-.72v-8.04h-5.07v-2.21h7.78s0,11.93,0,11.93Z"/>
      <path class="st0" d="M145.04,64.71c0,6.69-4.41,9.52-8.4,9.52-4.61,0-8.17-3.46-8.17-9.26,0-6.13,3.82-9.52,8.4-9.52,4.91,0,8.17,3.75,8.17,9.26M136.77,57.59c-3.89,0-5.5,3.82-5.5,7.28,0,3.99,2.21,7.22,5.44,7.22s5.53-3.23,5.53-7.28c0-3.2-1.55-7.22-5.47-7.22"/>
      <rect class="st0" x="148.54" y="47.47" width="2.74" height="26.36"/>
      <path class="st0" d="M156.35,55.88c0-2.24,0-5.17,1.98-7.18,1.18-1.15,2.74-1.61,4.15-1.61,1.15,0,2.08.26,2.67.53l-.46,2.14c-.49-.2-1.12-.43-2.08-.43-2.83,0-3.52,2.64-3.52,5.54v1.02h4.35v2.14h-4.35v15.82h-2.74v-15.82h-2.47v-2.14h2.47Z"/>
      <path class="st0" d="M107.8,90.62c1.85-.3,3.99-.53,6.33-.53,10.08,0,12.98,5.96,12.98,12.13,0,3.99-1.05,7.38-3.43,9.85-2.21,2.27-5.86,3.52-10.44,3.52-2.08,0-3.86-.07-5.44-.26,0,0,0-24.71,0-24.71ZM110.54,113.22c.82.13,2.01.16,3.2.16,6.79,0,10.51-3.86,10.51-11.04,0-6.52-3.49-10.05-10.02-10.05-1.58,0-2.83.17-3.69.33,0,0,0,20.6,0,20.6Z"/>
      <path class="st0" d="M143.23,114.64c-1.02.49-2.9,1.12-5.64,1.12-5.24,0-8.37-3.69-8.37-9.06s3.16-9.69,8.01-9.69c5.54,0,6.95,5.08,6.95,8.2,0,.63-.03,1.09-.07,1.52h-12.22c.03,4.98,2.87,6.85,6.1,6.85,2.24,0,3.59-.46,4.71-.92l.53,1.98ZM141.48,104.69c.03-2.44-.99-5.6-4.51-5.6-3.3,0-4.75,3.13-5.01,5.6h9.52,0Z"/>
      <path class="st0" d="M161.42,97.44l-6.82,17.96h-2.57l-6.62-17.99h2.93l3.59,10.45c.56,1.61,1.05,3.13,1.45,4.61h.1c.4-1.48.92-3,1.48-4.61l3.56-10.41h2.9Z"/>
      <path class="st0" d="M176.58,114.64c-1.02.49-2.9,1.12-5.64,1.12-5.24,0-8.37-3.69-8.37-9.06s3.16-9.69,8.01-9.69c5.54,0,6.95,5.08,6.95,8.2,0,.63-.03,1.09-.07,1.52h-12.22c.03,4.98,2.87,6.85,6.1,6.85,2.24,0,3.59-.46,4.71-.92l.53,1.98ZM174.83,104.69c.03-2.44-.99-5.6-4.51-5.6-3.3,0-4.75,3.13-5.01,5.6h9.52,0Z"/>
      <rect class="st0" x="180.96" y="89.03" width="2.74" height="26.36"/>
      <path class="st0" d="M203.73,106.27c0,6.69-4.41,9.52-8.4,9.52-4.61,0-8.17-3.46-8.17-9.26,0-6.13,3.82-9.52,8.4-9.52,4.91,0,8.17,3.75,8.17,9.26M195.46,99.15c-3.89,0-5.5,3.82-5.5,7.28,0,3.99,2.21,7.22,5.44,7.22s5.53-3.23,5.53-7.28c0-3.2-1.55-7.22-5.47-7.22"/>
      <path class="st0" d="M209.8,100.47c1.25-2.21,3.33-3.46,6.13-3.46,4.25,0,7.32,3.66,7.32,9.16,0,6.59-3.86,9.62-7.81,9.62-2.37,0-4.35-1.09-5.4-2.87h-.07v9.82h-2.74v-19.54c0-2.34-.07-4.15-.13-5.8h2.47l.17,3.06h.07-.01ZM209.96,108.24c0,3.49,2.6,5.34,5.04,5.34,3.52,0,5.47-3.03,5.47-7.31,0-3.72-1.88-7.02-5.37-7.02-3.07,0-5.14,2.97-5.14,5.57v3.43h0Z"/>
      <path class="st0" d="M251.15,115.4h-2.7v-10.38c0-3.49-1.25-5.73-3.95-5.73-2.21,0-4.22,2.08-4.22,4.81v11.3h-2.7v-11.07c0-2.87-1.22-5.04-3.76-5.04-2.34,0-4.41,2.3-4.41,5.11v11.01h-2.7v-13.35c0-1.85-.07-3.16-.13-4.64h2.41l.16,2.9h.1c.99-1.75,2.63-3.3,5.47-3.3,2.34,0,4.15,1.45,4.91,3.59h.07c1.19-2.14,3-3.59,5.77-3.59,2.21,0,5.7,1.42,5.7,7.58v10.81h-.02Z"/>
      <path class="st0" d="M268.52,114.64c-1.02.49-2.9,1.12-5.64,1.12-5.24,0-8.37-3.69-8.37-9.06s3.16-9.69,8.01-9.69c5.54,0,6.95,5.08,6.95,8.2,0,.63-.03,1.09-.07,1.52h-12.22c.03,4.98,2.87,6.85,6.1,6.85,2.24,0,3.59-.46,4.71-.92l.53,1.98ZM266.78,104.69c.03-2.44-.99-5.6-4.51-5.6-3.3,0-4.75,3.13-5.01,5.6h9.52Z"/>
      <path class="st0" d="M287.27,115.4h-2.74v-10.61c0-2.93-1.05-5.5-4.18-5.5-2.34,0-4.71,1.98-4.71,5.11v11.01h-2.74v-13.35c0-1.85-.07-3.19-.13-4.64h2.44l.16,2.93h.07c.89-1.75,2.97-3.33,5.76-3.33,2.24,0,6.06,1.35,6.06,7.45v10.94h0Z"/>
      <path class="st0" d="M292.65,94.17l2.7-.92v4.19h4.64v2.14h-4.64v10.38c0,2.27.69,3.52,2.44,3.52.82,0,1.38-.1,1.85-.26l.16,2.11c-.59.26-1.52.43-2.67.43-4.35,0-4.48-3.95-4.48-5.86v-10.32h-2.77v-2.14h2.77v-3.26h0Z"/>
      <path class="st0" d="M125.76,156.96h-2.9l-2.7-8.14h-8.73l-2.64,8.14h-2.8l8.3-25.11h3.16l8.3,25.11h0ZM119.6,146.64l-2.47-7.45c-.53-1.71-.96-3.3-1.29-4.78h-.1c-.33,1.52-.79,3.1-1.25,4.68l-2.5,7.55h7.61Z"/>
      <path class="st0" d="M137.07,141.73c-.66-.43-1.88-1.05-3.49-1.05-1.98,0-3.03,1.22-3.03,2.67,0,1.55,1.02,2.27,3.33,3.26,2.9,1.19,4.58,2.7,4.58,5.4,0,3.2-2.44,5.31-6.36,5.31-1.78,0-3.49-.49-4.71-1.22l.76-2.11c.96.56,2.51,1.22,4.05,1.22,2.41,0,3.59-1.29,3.59-2.9s-.96-2.6-3.33-3.56c-3.03-1.22-4.58-2.9-4.58-5.08,0-2.8,2.24-5.11,5.86-5.11,1.71,0,3.16.49,4.12,1.09l-.79,2.08h0Z"/>
      <path class="st0" d="M150.38,141.73c-.66-.43-1.88-1.05-3.49-1.05-1.98,0-3.03,1.22-3.03,2.67,0,1.55,1.02,2.27,3.33,3.26,2.9,1.19,4.58,2.7,4.58,5.4,0,3.2-2.44,5.31-6.36,5.31-1.78,0-3.49-.49-4.71-1.22l.76-2.11c.96.56,2.51,1.22,4.05,1.22,2.41,0,3.59-1.29,3.59-2.9s-.96-2.6-3.33-3.56c-3.03-1.22-4.58-2.9-4.58-5.08,0-2.8,2.24-5.11,5.86-5.11,1.71,0,3.16.49,4.12,1.09l-.79,2.08h0Z"/>
      <path class="st0" d="M170.55,147.83c0,6.69-4.41,9.52-8.4,9.52-4.61,0-8.17-3.46-8.17-9.26,0-6.13,3.82-9.52,8.4-9.52,4.91,0,8.17,3.75,8.17,9.26M162.28,140.71c-3.89,0-5.5,3.82-5.5,7.28,0,3.99,2.21,7.22,5.44,7.22s5.53-3.23,5.53-7.28c0-3.2-1.55-7.22-5.47-7.22"/>
      <path class="st0" d="M186.17,156.3c-.79.4-2.57,1.02-4.88,1.02-5.14,0-8.54-3.66-8.54-9.16s3.66-9.59,9.19-9.59c2.01,0,3.63.59,4.32.96l-.69,2.21c-.76-.43-1.94-.92-3.69-.92-4.15,0-6.33,3.33-6.33,7.18,0,4.35,2.6,7.08,6.23,7.08,1.78,0,3-.49,3.89-.89l.49,2.11h0Z"/>
      <path class="st0" d="M190.69,135.83c-1.05,0-1.78-.82-1.78-1.88s.76-1.85,1.81-1.85,1.78.82,1.78,1.85c0,1.15-.76,1.88-1.81,1.88M192.07,156.96h-2.74v-17.96h2.74v17.96h0Z"/>
      <path class="st0" d="M208.61,152.67c0,1.49.03,3.03.26,4.28h-2.5l-.26-2.3h-.1c-.92,1.42-2.77,2.7-5.31,2.7-3.43,0-5.24-2.5-5.24-5.11,0-4.32,3.76-6.66,10.41-6.62,0-1.52,0-4.94-4.08-4.94-1.55,0-3.16.43-4.38,1.28l-.66-1.88c1.45-.96,3.46-1.52,5.47-1.52,5.07,0,6.39,3.59,6.39,7.15v6.95h0ZM205.91,147.63c-3.39,0-7.64.49-7.64,4.28,0,2.31,1.45,3.33,3.1,3.33,2.67,0,4.55-2.04,4.55-4.22v-3.39h-.01Z"/>
      <path class="st0" d="M213.95,135.74l2.7-.92v4.19h4.64v2.14h-4.64v10.38c0,2.27.69,3.52,2.44,3.52.82,0,1.38-.1,1.85-.26l.16,2.11c-.59.26-1.52.43-2.67.43-4.35,0-4.48-3.95-4.48-5.86v-10.32h-2.77v-2.14h2.77v-3.26h0Z"/>
      <path class="st0" d="M225.58,135.83c-1.05,0-1.78-.82-1.78-1.88s.76-1.85,1.81-1.85,1.78.82,1.78,1.85c0,1.15-.76,1.88-1.81,1.88M226.97,156.96h-2.74v-17.96h2.74v17.96h0Z"/>
      <path class="st0" d="M247,147.83c0,6.69-4.41,9.52-8.4,9.52-4.61,0-8.17-3.46-8.17-9.26,0-6.13,3.82-9.52,8.4-9.52,4.91,0,8.17,3.75,8.17,9.26M238.73,140.71c-3.89,0-5.5,3.82-5.5,7.28,0,3.99,2.21,7.22,5.44,7.22s5.53-3.23,5.53-7.28c0-3.2-1.55-7.22-5.47-7.22"/>
      <path class="st0" d="M264.86,156.96h-2.74v-10.61c0-2.93-1.05-5.5-4.18-5.5-2.34,0-4.71,1.98-4.71,5.11v11.01h-2.74v-13.35c0-1.85-.07-3.19-.13-4.64h2.44l.16,2.93h.07c.89-1.75,2.97-3.33,5.77-3.33,2.24,0,6.06,1.35,6.06,7.45v10.94h0Z"/>
    </g>
  </g>
  <g>
    <g>
      <path class="st0" d="M284.65,213.13v-.07h7.34c.24,10.91,7.76,19.27,20.08,19.27s19.67-7.64,19.67-21.1v-23.86h7.7v24.59c0,17.31-10.43,27.5-27.13,27.5s-27.49-11.35-27.67-26.33h0Z"/>
      <path class="st0" d="M341.05,227.53c0-11.86,13.68-11.56,24.23-12.01,6.75-.29,12.32-.65,12.32-4.43s-4.68-6.98-12.68-6.98-13.63,3.63-15.64,9.24h-6.99c2.43-8.66,10.9-15.21,22.92-15.21s19.73,5.53,19.73,16.15v24h-7.23v-8c-4.62,6.11-11.67,9.02-19.73,9.02-10.6,0-16.94-4.51-16.94-11.78h0ZM359.06,233.64c7.17,0,14.87-3.05,18.66-8.58v-7.13c-2.9,2.33-7.99,2.83-13.15,3.05-7.99.29-16.23.29-16.23,6.48,0,4.22,4.44,6.18,10.72,6.18Z"/>
      <path class="st0" d="M388.09,199.23h7.29v9.31c3.79-6.33,11.02-10.33,19.61-10.33,13.09,0,22.86,8.88,22.86,20.52s-9.84,20.59-22.86,20.59c-8.59,0-15.82-4-19.61-10.26v22.55h-7.29v-52.38h0ZM430.56,218.73c0-8-7.34-14.47-17.42-14.47s-17.77,6.4-17.77,14.47,7.52,14.55,17.77,14.55,17.42-6.48,17.42-14.55h0Z"/>
      <path class="st0" d="M439.1,227.53c0-11.86,13.68-11.56,24.23-12.01,6.75-.29,12.32-.65,12.32-4.43s-4.68-6.98-12.68-6.98-13.63,3.63-15.64,9.24h-6.99c2.43-8.66,10.9-15.21,22.92-15.21s19.73,5.53,19.73,16.15v24h-7.23v-8c-4.62,6.11-11.67,9.02-19.73,9.02-10.6,0-16.94-4.51-16.94-11.78h0ZM457.1,233.64c7.17,0,14.87-3.05,18.66-8.58v-7.13c-2.9,2.33-7.99,2.83-13.15,3.05-7.99.29-16.23.29-16.23,6.48,0,4.22,4.44,6.18,10.72,6.18Z"/>
      <path class="st0" d="M486.14,199.23h7.29v8.95c4.03-6.33,10.31-9.96,17.65-9.96,11.84,0,19.49,8.66,19.49,21.68v18.41h-7.29v-16.95c0-10.69-5.81-16.66-14.51-16.66-6.75,0-12.38,4-15.34,9.6v24h-7.29v-39.06h0Z"/>
      <path class="st0" d="M606.34,226.3c-4.91,7.71-14.22,13.24-26.42,13.24-17.89,0-31.22-11.34-31.22-26.62s13.92-26.84,32.58-26.84c16.94,0,29.73,9.38,32.46,22.12h-8.29c-2.37-8.73-12.08-15.27-24.17-15.27-14.57,0-24.82,8.8-24.82,19.94s10.19,19.86,24.64,19.86c11.08,0,19.96-5.53,23.4-13.09h-21.45v-6.48h30.51v25.17h-7.23v-12.01h.01Z"/>
      <path class="st0" d="M615.88,218.8c0-11.78,10.72-20.95,24.88-20.95s24.88,9.16,24.88,20.95-10.72,20.8-24.88,20.8-24.88-9.16-24.88-20.8ZM658.36,218.73c0-8.08-7.52-14.62-17.59-14.62s-17.59,6.55-17.59,14.62,7.52,14.62,17.59,14.62,17.59-6.55,17.59-14.62Z"/>
      <path class="st0" d="M667.96,187.37h7.23v50.92h-7.23v-50.92Z"/>
      <path class="st0" d="M689.82,205.41h-12.68v-6.18h12.68v-2.69c0-8.29,3.26-12.07,11.13-12.07h12.5v6.18h-10.96c-3.79,0-5.51,1.97-5.51,6.11v2.47h16.47v6.18h-16.47v32.88h-7.17v-32.88h0Z"/>
    </g>
    <g>
      <path class="st0" d="M729.34,185.8h27.67c17.65,0,30.09,10.4,30.09,25.46s-12.5,25.46-30.03,25.46h-27.73v-50.92h0ZM737.04,192.64v37.32h19.67c13.69,0,22.63-7.56,22.63-18.62s-8.94-18.69-22.63-18.69h-19.67Z"/>
      <path class="st0" d="M789.12,217.23c0-11.86,10.96-20.95,24.41-20.95s24.35,8.88,24.35,21.46v1.17h-41.47c.89,7.42,7.88,12.95,17.12,12.95,7.58,0,13.75-3.63,16.23-8.66h7.4c-3.14,8.44-12.26,14.84-23.76,14.84-13.75,0-24.29-8.95-24.29-20.8h0ZM796.76,213.66h33.47c-1.72-6.48-8.17-11.28-16.83-11.28s-14.81,4.8-16.65,11.28Z"/>
      <path class="st0" d="M833.26,197.66h8.41l8.89,15.64,8.94,15.71,8.94-15.71,8.94-15.64h7.93l-22.51,39.06h-7.05l-22.51-39.06h0Z"/>
      <path class="st0" d="M880.77,217.23c0-11.86,10.96-20.95,24.41-20.95s24.35,8.88,24.35,21.46v1.17h-41.47c.89,7.42,7.88,12.95,17.12,12.95,7.58,0,13.75-3.63,16.23-8.66h7.4c-3.14,8.44-12.26,14.84-23.76,14.84-13.75,0-24.29-8.95-24.29-20.8h0ZM888.41,213.66h33.47c-1.72-6.48-8.17-11.28-16.83-11.28s-14.81,4.8-16.65,11.28Z"/>
      <path class="st0" d="M931.78,185.8h7.23v50.92h-7.23v-50.92Z"/>
      <path class="st0" d="M941.32,217.23c0-11.78,10.72-20.95,24.88-20.95s24.88,9.16,24.88,20.95-10.72,20.8-24.88,20.8-24.88-9.16-24.88-20.8ZM983.79,217.15c0-8.08-7.52-14.62-17.59-14.62s-17.6,6.55-17.6,14.62,7.52,14.62,17.6,14.62,17.59-6.55,17.59-14.62Z"/>
      <path class="st0" d="M993.33,197.66h7.29v9.31c3.79-6.33,11.02-10.33,19.61-10.33,13.09,0,22.86,8.88,22.86,20.52s-9.84,20.59-22.86,20.59c-8.59,0-15.82-4-19.61-10.26v22.55h-7.29v-52.38h0ZM1035.81,217.15c0-8-7.35-14.47-17.42-14.47s-17.77,6.4-17.77,14.47,7.52,14.55,17.77,14.55,17.42-6.48,17.42-14.55h0Z"/>
      <path class="st0" d="M1045.35,197.66h7.29v8.8c3.91-6.18,10.01-9.82,17.12-9.82,7.7,0,13.57,3.93,16.53,10.55,4.32-6.69,10.66-10.55,18.71-10.55,11.67,0,19.31,8.66,19.31,21.68v18.41h-7.29v-16.95c0-10.69-5.81-16.66-14.28-16.66-6.52,0-11.61,3.56-14.93,8.66.42,2.03.65,4.22.65,6.55v18.41h-7.29v-16.95c0-10.69-5.51-16.66-13.68-16.66-6.52,0-11.96,4-14.87,9.6v24h-7.29v-39.06h.01Z"/>
      <path class="st0" d="M1126.4,217.23c0-11.86,10.96-20.95,24.41-20.95s24.35,8.88,24.35,21.46v1.17h-41.47c.89,7.42,7.88,12.95,17.12,12.95,7.58,0,13.75-3.63,16.23-8.66h7.4c-3.14,8.44-12.26,14.84-23.76,14.84-13.75,0-24.29-8.95-24.29-20.8h0ZM1134.04,213.66h33.47c-1.72-6.48-8.17-11.28-16.83-11.28s-14.81,4.8-16.65,11.28Z"/>
      <path class="st0" d="M1177.35,197.66h7.29v8.95c4.03-6.33,10.31-9.96,17.65-9.96,11.84,0,19.49,8.66,19.49,21.68v18.41h-7.28v-16.95c0-10.69-5.81-16.66-14.51-16.66-6.75,0-12.38,4-15.34,9.6v24h-7.29v-39.06h0Z"/>
      <path class="st0" d="M1234.7,224.8v-20.95h-13.57v-6.18h13.57v-8.95h7.17v8.95h17.83v6.18h-17.83v20c0,4.58,2.13,6.55,6.46,6.55h11.37v6.33h-14.04c-7.46,0-10.96-4.08-10.96-11.93h0Z"/>
    </g>
    <g>
      <path class="st0" d="M1302.6,185.25h8.23l29.44,50.92h-8.89l-7.52-13.31h-34.72l-7.52,13.31h-8.53l29.5-50.92h0ZM1292.76,216.47h27.49l-1.3-2.33-12.44-22.19-12.44,22.19-1.3,2.33h0Z"/>
      <path class="st0" d="M1336.02,221.99h7.29c2.25,6.33,7.88,9.46,16.77,9.46s13.51-2.62,13.51-6.76c0-11.06-36.67,2.25-36.67-15.64,0-7.93,7.64-13.09,19.96-13.09s20.85,5.1,23.82,14.62h-7.17c-2.37-5.68-7.93-8.66-16.65-8.66s-12.8,2.62-12.8,6.26c0,10.98,36.67-2.4,36.67,15.71,0,8.15-8.05,13.46-20.62,13.46s-21.32-5.38-24.11-15.35h0Z"/>
      <path class="st0" d="M1381.81,221.99h7.29c2.25,6.33,7.88,9.46,16.77,9.46s13.51-2.62,13.51-6.76c0-11.06-36.67,2.25-36.67-15.64,0-7.93,7.64-13.09,19.96-13.09s20.85,5.1,23.82,14.62h-7.17c-2.37-5.68-7.93-8.66-16.65-8.66s-12.8,2.62-12.8,6.26c0,10.98,36.67-2.4,36.67,15.71,0,8.15-8.05,13.46-20.62,13.46s-21.32-5.38-24.11-15.35h0Z"/>
      <path class="st0" d="M1428.02,216.68c0-11.78,10.72-20.95,24.88-20.95s24.88,9.16,24.88,20.95-10.72,20.8-24.88,20.8-24.88-9.16-24.88-20.8ZM1470.49,216.61c0-8.08-7.52-14.62-17.59-14.62s-17.6,6.55-17.6,14.62,7.52,14.62,17.6,14.62,17.59-6.55,17.59-14.62Z"/>
      <path class="st0" d="M1479.68,216.68c0-11.86,10.78-20.95,24.59-20.95,12.5,0,22.39,7.35,24.23,17.53h-7.11c-1.72-6.62-8.53-11.28-17.12-11.28-9.72,0-17.3,6.55-17.3,14.62s7.4,14.62,17.3,14.62c8.83,0,15.64-4.95,17.12-11.49h7.05c-1.78,10.26-11.37,17.75-24.17,17.75-13.98,0-24.59-8.88-24.59-20.8h0Z"/>
      <path class="st0" d="M1530.63,185.25h7.35v7.35h-7.35v-7.35ZM1530.69,197.11h7.23v39.06h-7.23v-39.06Z"/>
      <path class="st0" d="M1540.17,225.41c0-11.86,13.69-11.56,24.23-12.01,6.75-.29,12.32-.65,12.32-4.43s-4.68-6.98-12.68-6.98-13.63,3.63-15.64,9.24h-6.99c2.43-8.66,10.9-15.21,22.92-15.21s19.73,5.53,19.73,16.15v24h-7.23v-8c-4.62,6.11-11.67,9.02-19.73,9.02-10.6,0-16.94-4.51-16.94-11.78h0ZM1558.18,231.52c7.17,0,14.87-3.05,18.66-8.58v-7.13c-2.9,2.33-7.99,2.83-13.15,3.05-7.99.29-16.23.29-16.23,6.48,0,4.22,4.44,6.18,10.72,6.18Z"/>
      <path class="st0" d="M1597.1,224.25v-20.95h-13.57v-6.18h13.57v-8.95h7.17v8.95h17.83v6.18h-17.83v20c0,4.58,2.13,6.55,6.46,6.55h11.37v6.33h-14.04c-7.46,0-10.96-4.08-10.96-11.93Z"/>
      <path class="st0" d="M1623.94,185.25h7.35v7.35h-7.35v-7.35ZM1624,197.11h7.23v39.06h-7.23v-39.06Z"/>
      <path class="st0" d="M1633.54,216.68c0-11.78,10.72-20.95,24.88-20.95s24.88,9.16,24.88,20.95-10.72,20.8-24.88,20.8-24.88-9.16-24.88-20.8ZM1676.01,216.61c0-8.08-7.52-14.62-17.59-14.62s-17.6,6.55-17.6,14.62,7.52,14.62,17.6,14.62,17.59-6.55,17.59-14.62Z"/>
      <path class="st0" d="M1685.55,197.11h7.29v8.95c4.03-6.33,10.31-9.96,17.65-9.96,11.84,0,19.49,8.66,19.49,21.68v18.41h-7.29v-16.95c0-10.69-5.81-16.66-14.51-16.66-6.75,0-12.38,4-15.34,9.6v24h-7.29v-39.06h0Z"/>
    </g>
  </g>
</svg>