<?xml version="1.0" encoding="UTF-8"?>
<svg id="_レイヤー_1" data-name="レイヤー_1" xmlns="http://www.w3.org/2000/svg" version="1.1" viewBox="0 0 2742.78 331.02">
  <!-- Generator: Adobe Illustrator 29.3.1, SVG Export Plug-In . SVG Version: 2.1.0 Build 151)  -->
  <defs>
    <style>
      .st0 {
        fill: #60b630;
      }

      .st1 {
        fill: #003692;
      }
    </style>
  </defs>
  <g id="JGDA">
    <g>
      <path class="st1" d="M48.41,111.21h0V4.25c0-2.35,1.9-4.25,4.25-4.25h32.06c2.35,0,4.25,1.9,4.25,4.25v66.4c0,22.4-18.16,40.56-40.56,40.56"/>
      <path class="st1" d="M39.25,111.21h0v-27.14c0-2.35-1.91-4.26-4.26-4.26H7.85c0,17.34,14.06,31.4,31.4,31.4"/>
      <path class="st1" d="M90.99,154.39c-7.2-15.33-22.31-26.19-40.07-27.36-1.36-.09-2.51,1.01-2.51,2.38v24.98h42.59Z"/>
      <path class="st1" d="M50.85,222.31c23.68-1.52,42.65-22.24,44.5-45.83.11-1.34-.97-2.47-2.31-2.47h-44.63v45.99c0,1.33,1.12,2.39,2.44,2.31"/>
      <path class="st1" d="M0,174.67C0,197.07,15.42,215.85,36.23,221.01c1.53.38,3.02-.76,3.02-2.35v-87.99c0-1.58-1.49-2.72-3.02-2.35C15.42,133.49,0,152.27,0,174.67"/>
      <path class="st1" d="M135.81,268.87h-27.61c-2.31,0-4.19-1.87-4.19-4.19v-85.83c0-2.31,1.87-4.19,4.19-4.19h27.61c2.31,0,4.19,1.87,4.19,4.19v85.83c0,2.31-1.87,4.19-4.19,4.19"/>
      <path class="st1" d="M188.41,222.1c0-22.88-16.09-41.98-37.57-46.65-.86-.19-1.68.46-1.68,1.35v90.61c0,.88.82,1.53,1.68,1.35,21.48-4.67,37.57-23.77,37.57-46.65"/>
      <path class="st1" d="M109.92,331.02h-42.93c.23-10.89-.87-28.4-7.49-45.58-3.81-9.9-6.5-15.07-8.46-17.69l26.05-36.12c9.37,11.07,16.94,23.98,22.48,38.37,7.23,18.77,10.81,39.87,10.35,61.02"/>
      <path class="st1" d="M62.15,312.05c0,10.48-8.49,18.97-18.97,18.97s-18.97-8.49-18.97-18.97,8.49-18.97,18.97-18.97,18.97,8.49,18.97,18.97"/>
      <path class="st1" d="M115.42,24.3c0,6.42-3.06,8.37-7.09,8.37-1.12,0-2.44-.23-3.13-.53l.39-2.24c.63.23,1.52.43,2.54.43,2.9,0,4.55-1.29,4.55-6.26V7.2h2.74v17.1Z"/>
      <path class="st1" d="M131.76,27.99c0,1.49.03,3.03.26,4.28h-2.5l-.26-2.3h-.1c-.92,1.42-2.77,2.7-5.31,2.7-3.43,0-5.24-2.5-5.24-5.11,0-4.32,3.76-6.66,10.41-6.62,0-1.52,0-4.94-4.08-4.94-1.55,0-3.16.43-4.38,1.28l-.66-1.88c1.45-.96,3.46-1.52,5.47-1.52,5.07,0,6.39,3.59,6.39,7.15v6.95ZM129.06,22.95c-3.39,0-7.64.49-7.64,4.28,0,2.31,1.45,3.33,3.1,3.33,2.67,0,4.55-2.04,4.55-4.22v-3.39Z"/>
      <path class="st1" d="M138.95,17.35c1.25-2.21,3.33-3.46,6.13-3.46,4.25,0,7.32,3.66,7.32,9.16,0,6.59-3.86,9.62-7.81,9.62-2.37,0-4.35-1.09-5.4-2.87h-.07v9.82h-2.74v-19.54c0-2.34-.07-4.15-.13-5.8h2.47l.17,3.06h.07ZM139.11,25.12c0,3.49,2.6,5.34,5.04,5.34,3.52,0,5.47-3.03,5.47-7.31,0-3.72-1.88-7.02-5.37-7.02-3.07,0-5.14,2.97-5.14,5.57v3.43Z"/>
      <path class="st1" d="M167.62,27.99c0,1.49.03,3.03.26,4.28h-2.5l-.26-2.3h-.1c-.92,1.42-2.77,2.7-5.31,2.7-3.43,0-5.24-2.5-5.24-5.11,0-4.32,3.76-6.66,10.41-6.62,0-1.52,0-4.94-4.08-4.94-1.55,0-3.16.43-4.38,1.28l-.66-1.88c1.45-.96,3.46-1.52,5.47-1.52,5.07,0,6.39,3.59,6.39,7.15v6.95ZM164.91,22.95c-3.39,0-7.64.49-7.64,4.28,0,2.31,1.45,3.33,3.1,3.33,2.67,0,4.55-2.04,4.55-4.22v-3.39Z"/>
      <path class="st1" d="M186.6,32.27h-2.74v-10.61c0-2.93-1.05-5.5-4.18-5.5-2.34,0-4.71,1.98-4.71,5.11v11.01h-2.74v-13.35c0-1.85-.07-3.19-.13-4.64h2.44l.16,2.93h.07c.89-1.75,2.97-3.33,5.77-3.33,2.24,0,6.06,1.35,6.06,7.45v10.94Z"/>
      <path class="st1" d="M125.7,72.81c-1.35.53-3.99,1.29-7.15,1.29-9.85,0-12.19-7.35-12.19-12.66,0-7.64,4.97-12.95,12.85-12.95,2.41,0,4.55.46,5.8,1.05l-.73,2.27c-1.22-.56-2.8-1.02-5.14-1.02-5.93,0-9.92,3.82-9.92,10.48s3.79,10.58,9.52,10.58c2.11,0,3.52-.33,4.25-.72v-8.04h-5.07v-2.21h7.78v11.93Z"/>
      <path class="st1" d="M145.04,64.71c0,6.69-4.41,9.52-8.4,9.52-4.61,0-8.17-3.46-8.17-9.26,0-6.13,3.82-9.52,8.4-9.52,4.91,0,8.17,3.75,8.17,9.26M136.77,57.59c-3.89,0-5.5,3.82-5.5,7.28,0,3.99,2.21,7.22,5.44,7.22s5.53-3.23,5.53-7.28c0-3.2-1.55-7.22-5.47-7.22"/>
      <rect class="st1" x="148.54" y="47.47" width="2.74" height="26.36"/>
      <path class="st1" d="M156.35,55.88c0-2.24,0-5.17,1.98-7.18,1.18-1.15,2.74-1.61,4.15-1.61,1.15,0,2.08.26,2.67.53l-.46,2.14c-.49-.2-1.12-.43-2.08-.43-2.83,0-3.52,2.64-3.52,5.54v1.02h4.35v2.14h-4.35v15.82h-2.74v-15.82h-2.47v-2.14h2.47Z"/>
      <path class="st1" d="M107.8,90.62c1.85-.3,3.99-.53,6.33-.53,10.08,0,12.98,5.96,12.98,12.13,0,3.99-1.05,7.38-3.43,9.85-2.21,2.27-5.86,3.52-10.44,3.52-2.08,0-3.86-.07-5.44-.26v-24.71ZM110.54,113.22c.82.13,2.01.16,3.2.16,6.79,0,10.51-3.86,10.51-11.04,0-6.52-3.49-10.05-10.02-10.05-1.58,0-2.83.17-3.69.33v20.6Z"/>
      <path class="st1" d="M143.23,114.64c-1.02.49-2.9,1.12-5.64,1.12-5.24,0-8.37-3.69-8.37-9.06s3.16-9.69,8.01-9.69c5.54,0,6.95,5.08,6.95,8.2,0,.63-.03,1.09-.07,1.52h-12.22c.03,4.98,2.87,6.85,6.1,6.85,2.24,0,3.59-.46,4.71-.92l.53,1.98ZM141.48,104.69c.03-2.44-.99-5.6-4.51-5.6-3.3,0-4.75,3.13-5.01,5.6h9.52Z"/>
      <path class="st1" d="M161.42,97.44l-6.82,17.96h-2.57l-6.62-17.99h2.93l3.59,10.45c.56,1.61,1.05,3.13,1.45,4.61h.1c.4-1.48.92-3,1.48-4.61l3.56-10.41h2.9Z"/>
      <path class="st1" d="M176.58,114.64c-1.02.49-2.9,1.12-5.64,1.12-5.24,0-8.37-3.69-8.37-9.06s3.16-9.69,8.01-9.69c5.54,0,6.95,5.08,6.95,8.2,0,.63-.03,1.09-.07,1.52h-12.22c.03,4.98,2.87,6.85,6.1,6.85,2.24,0,3.59-.46,4.71-.92l.53,1.98ZM174.83,104.69c.03-2.44-.99-5.6-4.51-5.6-3.3,0-4.75,3.13-5.01,5.6h9.52Z"/>
      <rect class="st1" x="180.96" y="89.03" width="2.74" height="26.36"/>
      <path class="st1" d="M203.73,106.27c0,6.69-4.41,9.52-8.4,9.52-4.61,0-8.17-3.46-8.17-9.26,0-6.13,3.82-9.52,8.4-9.52,4.91,0,8.17,3.75,8.17,9.26M195.46,99.15c-3.89,0-5.5,3.82-5.5,7.28,0,3.99,2.21,7.22,5.44,7.22s5.53-3.23,5.53-7.28c0-3.2-1.55-7.22-5.47-7.22"/>
      <path class="st1" d="M209.8,100.47c1.25-2.21,3.33-3.46,6.13-3.46,4.25,0,7.32,3.66,7.32,9.16,0,6.59-3.86,9.62-7.81,9.62-2.37,0-4.35-1.09-5.4-2.87h-.07v9.82h-2.74v-19.54c0-2.34-.07-4.15-.13-5.8h2.47l.17,3.06h.07ZM209.96,108.24c0,3.49,2.6,5.34,5.04,5.34,3.52,0,5.47-3.03,5.47-7.31,0-3.72-1.88-7.02-5.37-7.02-3.07,0-5.14,2.97-5.14,5.57v3.43Z"/>
      <path class="st1" d="M251.15,115.4h-2.7v-10.38c0-3.49-1.25-5.73-3.95-5.73-2.21,0-4.22,2.08-4.22,4.81v11.3h-2.7v-11.07c0-2.87-1.22-5.04-3.76-5.04-2.34,0-4.41,2.3-4.41,5.11v11.01h-2.7v-13.35c0-1.85-.07-3.16-.13-4.64h2.41l.16,2.9h.1c.99-1.75,2.63-3.3,5.47-3.3,2.34,0,4.15,1.45,4.91,3.59h.07c1.19-2.14,3-3.59,5.77-3.59,2.21,0,5.7,1.42,5.7,7.58v10.81Z"/>
      <path class="st1" d="M268.52,114.64c-1.02.49-2.9,1.12-5.64,1.12-5.24,0-8.37-3.69-8.37-9.06s3.16-9.69,8.01-9.69c5.54,0,6.95,5.08,6.95,8.2,0,.63-.03,1.09-.07,1.52h-12.22c.03,4.98,2.87,6.85,6.1,6.85,2.24,0,3.59-.46,4.71-.92l.53,1.98ZM266.78,104.69c.03-2.44-.99-5.6-4.51-5.6-3.3,0-4.75,3.13-5.01,5.6h9.52Z"/>
      <path class="st1" d="M287.27,115.4h-2.74v-10.61c0-2.93-1.05-5.5-4.18-5.5-2.34,0-4.71,1.98-4.71,5.11v11.01h-2.74v-13.35c0-1.85-.07-3.19-.13-4.64h2.44l.16,2.93h.07c.89-1.75,2.97-3.33,5.76-3.33,2.24,0,6.06,1.35,6.06,7.45v10.94Z"/>
      <path class="st1" d="M292.65,94.17l2.7-.92v4.19h4.64v2.14h-4.64v10.38c0,2.27.69,3.52,2.44,3.52.82,0,1.38-.1,1.85-.26l.16,2.11c-.59.26-1.52.43-2.67.43-4.35,0-4.48-3.95-4.48-5.86v-10.32h-2.77v-2.14h2.77v-3.26Z"/>
      <path class="st1" d="M125.76,156.96h-2.9l-2.7-8.14h-8.73l-2.64,8.14h-2.8l8.3-25.11h3.16l8.3,25.11ZM119.6,146.64l-2.47-7.45c-.53-1.71-.96-3.3-1.29-4.78h-.1c-.33,1.52-.79,3.1-1.25,4.68l-2.5,7.55h7.61Z"/>
      <path class="st1" d="M137.07,141.73c-.66-.43-1.88-1.05-3.49-1.05-1.98,0-3.03,1.22-3.03,2.67,0,1.55,1.02,2.27,3.33,3.26,2.9,1.19,4.58,2.7,4.58,5.4,0,3.2-2.44,5.31-6.36,5.31-1.78,0-3.49-.49-4.71-1.22l.76-2.11c.96.56,2.51,1.22,4.05,1.22,2.41,0,3.59-1.29,3.59-2.9s-.96-2.6-3.33-3.56c-3.03-1.22-4.58-2.9-4.58-5.08,0-2.8,2.24-5.11,5.86-5.11,1.71,0,3.16.49,4.12,1.09l-.79,2.08Z"/>
      <path class="st1" d="M150.38,141.73c-.66-.43-1.88-1.05-3.49-1.05-1.98,0-3.03,1.22-3.03,2.67,0,1.55,1.02,2.27,3.33,3.26,2.9,1.19,4.58,2.7,4.58,5.4,0,3.2-2.44,5.31-6.36,5.31-1.78,0-3.49-.49-4.71-1.22l.76-2.11c.96.56,2.51,1.22,4.05,1.22,2.41,0,3.59-1.29,3.59-2.9s-.96-2.6-3.33-3.56c-3.03-1.22-4.58-2.9-4.58-5.08,0-2.8,2.24-5.11,5.86-5.11,1.71,0,3.16.49,4.12,1.09l-.79,2.08Z"/>
      <path class="st1" d="M170.55,147.83c0,6.69-4.41,9.52-8.4,9.52-4.61,0-8.17-3.46-8.17-9.26,0-6.13,3.82-9.52,8.4-9.52,4.91,0,8.17,3.75,8.17,9.26M162.28,140.71c-3.89,0-5.5,3.82-5.5,7.28,0,3.99,2.21,7.22,5.44,7.22s5.53-3.23,5.53-7.28c0-3.2-1.55-7.22-5.47-7.22"/>
      <path class="st1" d="M186.17,156.3c-.79.4-2.57,1.02-4.88,1.02-5.14,0-8.54-3.66-8.54-9.16s3.66-9.59,9.19-9.59c2.01,0,3.63.59,4.32.96l-.69,2.21c-.76-.43-1.94-.92-3.69-.92-4.15,0-6.33,3.33-6.33,7.18,0,4.35,2.6,7.08,6.23,7.08,1.78,0,3-.49,3.89-.89l.49,2.11Z"/>
      <path class="st1" d="M190.69,135.83c-1.05,0-1.78-.82-1.78-1.88s.76-1.85,1.81-1.85,1.78.82,1.78,1.85c0,1.15-.76,1.88-1.81,1.88M192.07,156.96h-2.74v-17.96h2.74v17.96Z"/>
      <path class="st1" d="M208.61,152.67c0,1.49.03,3.03.26,4.28h-2.5l-.26-2.3h-.1c-.92,1.42-2.77,2.7-5.31,2.7-3.43,0-5.24-2.5-5.24-5.11,0-4.32,3.76-6.66,10.41-6.62,0-1.52,0-4.94-4.08-4.94-1.55,0-3.16.43-4.38,1.28l-.66-1.88c1.45-.96,3.46-1.52,5.47-1.52,5.07,0,6.39,3.59,6.39,7.15v6.95ZM205.91,147.63c-3.39,0-7.64.49-7.64,4.28,0,2.31,1.45,3.33,3.1,3.33,2.67,0,4.55-2.04,4.55-4.22v-3.39Z"/>
      <path class="st1" d="M213.95,135.74l2.7-.92v4.19h4.64v2.14h-4.64v10.38c0,2.27.69,3.52,2.44,3.52.82,0,1.38-.1,1.85-.26l.16,2.11c-.59.26-1.52.43-2.67.43-4.35,0-4.48-3.95-4.48-5.86v-10.32h-2.77v-2.14h2.77v-3.26Z"/>
      <path class="st1" d="M225.58,135.83c-1.05,0-1.78-.82-1.78-1.88s.76-1.85,1.81-1.85,1.78.82,1.78,1.85c0,1.15-.76,1.88-1.81,1.88M226.97,156.96h-2.74v-17.96h2.74v17.96Z"/>
      <path class="st1" d="M247,147.83c0,6.69-4.41,9.52-8.4,9.52-4.61,0-8.17-3.46-8.17-9.26,0-6.13,3.82-9.52,8.4-9.52,4.91,0,8.17,3.75,8.17,9.26M238.73,140.71c-3.89,0-5.5,3.82-5.5,7.28,0,3.99,2.21,7.22,5.44,7.22s5.53-3.23,5.53-7.28c0-3.2-1.55-7.22-5.47-7.22"/>
      <path class="st1" d="M264.86,156.96h-2.74v-10.61c0-2.93-1.05-5.5-4.18-5.5-2.34,0-4.71,1.98-4.71,5.11v11.01h-2.74v-13.35c0-1.85-.07-3.19-.13-4.64h2.44l.16,2.93h.07c.89-1.75,2.97-3.33,5.77-3.33,2.24,0,6.06,1.35,6.06,7.45v10.94Z"/>
    </g>
  </g>
  <g>
    <path class="st0" d="M319.38,218.24v-.1h12.28c.4,14.86,12.98,26.25,33.59,26.25s32.89-10.4,32.89-28.73v-32.5h12.88v33.49c0,23.58-17.44,37.45-45.38,37.45s-45.97-15.46-46.27-35.86Z"/>
    <path class="st1" d="M413.71,237.85c0-16.15,22.88-15.75,40.52-16.35,11.29-.4,20.61-.89,20.61-6.04s-7.83-9.51-21.2-9.51-22.79,4.95-26.15,12.58h-11.69c4.06-11.79,18.23-20.71,38.34-20.71s32.99,7.53,32.99,21.99v32.69h-12.09v-10.9c-7.73,8.32-19.52,12.29-32.99,12.29-17.73,0-28.33-6.14-28.33-16.05ZM443.83,246.17c11.99,0,24.87-4.16,31.21-11.69v-9.71c-4.85,3.17-13.37,3.86-21.99,4.16-13.37.4-27.15.4-27.15,8.82,0,5.75,7.43,8.42,17.93,8.42Z"/>
    <path class="st1" d="M492.38,199.31h12.19v12.68c6.34-8.62,18.43-14.07,32.79-14.07,21.9,0,38.24,12.09,38.24,27.94s-16.45,28.04-38.24,28.04c-14.37,0-26.45-5.45-32.79-13.97v30.71h-12.19v-71.33ZM563.42,225.86c0-10.9-12.28-19.71-29.13-19.71s-29.72,8.72-29.72,19.71,12.58,19.81,29.72,19.81,29.13-8.82,29.13-19.81Z"/>
    <path class="st1" d="M577.7,237.85c0-16.15,22.88-15.75,40.52-16.35,11.29-.4,20.61-.89,20.61-6.04s-7.83-9.51-21.2-9.51-22.79,4.95-26.15,12.58h-11.69c4.06-11.79,18.23-20.71,38.34-20.71s32.99,7.53,32.99,21.99v32.69h-12.09v-10.9c-7.73,8.32-19.52,12.29-32.99,12.29-17.73,0-28.33-6.14-28.33-16.05ZM607.81,246.17c11.99,0,24.87-4.16,31.21-11.69v-9.71c-4.85,3.17-13.37,3.86-21.99,4.16-13.37.4-27.15.4-27.15,8.82,0,5.75,7.43,8.42,17.93,8.42Z"/>
    <path class="st1" d="M656.37,199.31h12.19v12.19c6.74-8.62,17.24-13.57,29.52-13.57,19.81,0,32.59,11.79,32.59,29.52v25.07h-12.19v-23.08c0-14.56-9.71-22.69-24.27-22.69-11.29,0-20.71,5.45-25.66,13.08v32.69h-12.19v-53.2Z"/>
    <path class="st0" d="M857.4,236.17c-8.22,10.5-23.78,18.03-44.19,18.03-29.92,0-52.21-15.45-52.21-36.26s23.28-36.56,54.49-36.56c28.33,0,49.73,12.78,54.29,30.12h-13.87c-3.96-11.89-20.21-20.8-40.42-20.8-24.37,0-41.51,11.99-41.51,27.15s17.04,27.05,41.21,27.05c18.53,0,33.39-7.53,39.13-17.83h-35.87v-8.82h51.02v34.28h-12.09v-16.35Z"/>
    <path class="st1" d="M873.36,225.96c0-16.05,17.93-28.53,41.61-28.53s41.61,12.48,41.61,28.53-17.93,28.33-41.61,28.33-41.61-12.48-41.61-28.33ZM944.4,225.86c0-11-12.58-19.91-29.42-19.91s-29.42,8.92-29.42,19.91,12.58,19.91,29.42,19.91,29.42-8.92,29.42-19.91Z"/>
    <path class="st1" d="M960.46,183.16h12.09v69.35h-12.09v-69.35Z"/>
    <path class="st1" d="M997.02,207.73h-21.2v-8.42h21.2v-3.67c0-11.29,5.45-16.44,18.62-16.44h20.9v8.42h-18.33c-6.34,0-9.21,2.68-9.21,8.32v3.37h27.54v8.42h-27.54v44.78h-11.99v-44.78Z"/>
    <path class="st0" d="M1066.67,183.16h46.27c29.52,0,50.33,14.17,50.33,34.68s-20.9,34.68-50.23,34.68h-46.37v-69.35ZM1079.55,192.48v50.82h32.89c22.89,0,37.84-10.3,37.84-25.36s-14.96-25.46-37.84-25.46h-32.89Z"/>
    <path class="st1" d="M1166.65,225.96c0-16.15,18.33-28.53,40.82-28.53s40.72,12.09,40.72,29.23v1.59h-69.35c1.49,10.11,13.18,17.64,28.63,17.64,12.68,0,22.99-4.95,27.15-11.79h12.38c-5.25,11.49-20.51,20.21-39.73,20.21-22.99,0-40.62-12.19-40.62-28.33ZM1179.43,221.11h55.98c-2.87-8.82-13.67-15.36-28.14-15.36s-24.77,6.54-27.84,15.36Z"/>
    <path class="st1" d="M1240.47,199.31h14.07l14.86,21.3,14.96,21.4,14.96-21.4,14.96-21.3h13.27l-37.65,53.2h-11.79l-37.65-53.2Z"/>
    <path class="st1" d="M1319.93,225.96c0-16.15,18.33-28.53,40.82-28.53s40.72,12.09,40.72,29.23v1.59h-69.35c1.49,10.11,13.18,17.64,28.63,17.64,12.68,0,22.99-4.95,27.15-11.79h12.38c-5.25,11.49-20.51,20.21-39.73,20.21-22.99,0-40.62-12.19-40.62-28.33ZM1332.71,221.11h55.98c-2.87-8.82-13.67-15.36-28.14-15.36s-24.77,6.54-27.84,15.36Z"/>
    <path class="st1" d="M1405.25,183.16h12.09v69.35h-12.09v-69.35Z"/>
    <path class="st1" d="M1421.2,225.96c0-16.05,17.93-28.53,41.61-28.53s41.61,12.48,41.61,28.53-17.93,28.33-41.61,28.33-41.61-12.48-41.61-28.33ZM1492.23,225.86c0-11-12.58-19.91-29.42-19.91s-29.43,8.92-29.43,19.91,12.58,19.91,29.43,19.91,29.42-8.92,29.42-19.91Z"/>
    <path class="st1" d="M1508.19,199.31h12.19v12.68c6.34-8.62,18.43-14.07,32.79-14.07,21.9,0,38.24,12.09,38.24,27.94s-16.45,28.04-38.24,28.04c-14.37,0-26.45-5.45-32.79-13.97v30.71h-12.19v-71.33ZM1579.23,225.86c0-10.9-12.29-19.71-29.13-19.71s-29.72,8.72-29.72,19.71,12.58,19.81,29.72,19.81,29.13-8.82,29.13-19.81Z"/>
    <path class="st1" d="M1595.19,199.31h12.19v11.99c6.54-8.42,16.74-13.37,28.63-13.37,12.88,0,22.69,5.35,27.64,14.37,7.23-9.11,17.83-14.37,31.3-14.37,19.52,0,32.3,11.79,32.3,29.52v25.07h-12.19v-23.08c0-14.56-9.71-22.69-23.88-22.69-10.9,0-19.42,4.85-24.97,11.79.7,2.77,1.09,5.75,1.09,8.92v25.07h-12.19v-23.08c0-14.56-9.21-22.69-22.88-22.69-10.9,0-20.01,5.45-24.87,13.08v32.69h-12.19v-53.2Z"/>
    <path class="st1" d="M1730.74,225.96c0-16.15,18.33-28.53,40.82-28.53s40.72,12.09,40.72,29.23v1.59h-69.35c1.49,10.11,13.18,17.64,28.63,17.64,12.68,0,22.99-4.95,27.15-11.79h12.38c-5.25,11.49-20.51,20.21-39.73,20.21-22.99,0-40.62-12.19-40.62-28.33ZM1743.52,221.11h55.98c-2.87-8.82-13.67-15.36-28.14-15.36s-24.77,6.54-27.84,15.36Z"/>
    <path class="st1" d="M1815.95,199.31h12.19v12.19c6.74-8.62,17.24-13.57,29.52-13.57,19.81,0,32.59,11.79,32.59,29.52v25.07h-12.18v-23.08c0-14.56-9.71-22.69-24.27-22.69-11.29,0-20.71,5.45-25.66,13.08v32.69h-12.19v-53.2Z"/>
    <path class="st1" d="M1911.86,236.27v-28.53h-22.69v-8.42h22.69v-12.19h11.99v12.19h29.82v8.42h-29.82v27.24c0,6.24,3.57,8.92,10.8,8.92h19.02v8.62h-23.48c-12.48,0-18.33-5.55-18.33-16.25Z"/>
    <path class="st0" d="M2027.99,183.16h13.77l49.24,69.35h-14.86l-12.58-18.13h-58.06l-12.58,18.13h-14.27l49.34-69.35ZM2011.54,225.67h45.97l-2.18-3.17-20.8-30.22-20.81,30.22-2.18,3.17Z"/>
    <path class="st1" d="M2083.88,233.2h12.19c3.76,8.62,13.18,12.88,28.04,12.88s22.59-3.57,22.59-9.21c0-15.06-61.33,3.07-61.33-21.3,0-10.8,12.78-17.83,33.39-17.83s34.87,6.94,39.83,19.91h-11.99c-3.96-7.73-13.27-11.79-27.84-11.79s-21.4,3.57-21.4,8.52c0,14.96,61.33-3.27,61.33,21.4,0,11.1-13.47,18.33-34.48,18.33s-35.66-7.33-40.32-20.9Z"/>
    <path class="st1" d="M2160.47,233.2h12.19c3.76,8.62,13.18,12.88,28.04,12.88s22.59-3.57,22.59-9.21c0-15.06-61.33,3.07-61.33-21.3,0-10.8,12.78-17.83,33.39-17.83s34.87,6.94,39.83,19.91h-11.99c-3.96-7.73-13.27-11.79-27.84-11.79s-21.4,3.57-21.4,8.52c0,14.96,61.33-3.27,61.33,21.4,0,11.1-13.47,18.33-34.48,18.33s-35.66-7.33-40.32-20.9Z"/>
    <path class="st1" d="M2237.76,225.96c0-16.05,17.93-28.53,41.61-28.53s41.61,12.48,41.61,28.53-17.93,28.33-41.61,28.33-41.61-12.48-41.61-28.33ZM2308.79,225.86c0-11-12.58-19.91-29.42-19.91s-29.43,8.92-29.43,19.91,12.58,19.91,29.43,19.91,29.42-8.92,29.42-19.91Z"/>
    <path class="st1" d="M2324.16,225.96c0-16.15,18.03-28.53,41.12-28.53,20.9,0,37.45,10.01,40.52,23.88h-11.89c-2.87-9.02-14.27-15.36-28.63-15.36-16.25,0-28.93,8.92-28.93,19.91s12.38,19.91,28.93,19.91c14.76,0,26.16-6.74,28.63-15.65h11.79c-2.97,13.97-19.02,24.17-40.42,24.17-23.38,0-41.12-12.09-41.12-28.33Z"/>
    <path class="st1" d="M2409.37,183.16h12.29v10.01h-12.29v-10.01ZM2409.47,199.31h12.09v53.2h-12.09v-53.2Z"/>
    <path class="st1" d="M2425.32,237.85c0-16.15,22.89-15.75,40.52-16.35,11.29-.4,20.61-.89,20.61-6.04s-7.83-9.51-21.2-9.51-22.79,4.95-26.15,12.58h-11.69c4.06-11.79,18.23-20.71,38.34-20.71s32.99,7.53,32.99,21.99v32.69h-12.09v-10.9c-7.73,8.32-19.52,12.29-32.99,12.29-17.73,0-28.33-6.14-28.33-16.05ZM2455.44,246.17c11.99,0,24.87-4.16,31.21-11.69v-9.71c-4.85,3.17-13.37,3.86-21.99,4.16-13.37.4-27.15.4-27.15,8.82,0,5.75,7.43,8.42,17.93,8.42Z"/>
    <path class="st1" d="M2520.54,236.27v-28.53h-22.69v-8.42h22.69v-12.19h11.99v12.19h29.82v8.42h-29.82v27.24c0,6.24,3.57,8.92,10.8,8.92h19.02v8.62h-23.48c-12.48,0-18.33-5.55-18.33-16.25Z"/>
    <path class="st1" d="M2565.43,183.16h12.29v10.01h-12.29v-10.01ZM2565.52,199.31h12.09v53.2h-12.09v-53.2Z"/>
    <path class="st1" d="M2581.48,225.96c0-16.05,17.93-28.53,41.61-28.53s41.61,12.48,41.61,28.53-17.93,28.33-41.61,28.33-41.61-12.48-41.61-28.33ZM2652.51,225.86c0-11-12.58-19.91-29.42-19.91s-29.43,8.92-29.43,19.91,12.58,19.91,29.43,19.91,29.42-8.92,29.42-19.91Z"/>
    <path class="st1" d="M2668.47,199.31h12.19v12.19c6.74-8.62,17.24-13.57,29.52-13.57,19.81,0,32.59,11.79,32.59,29.52v25.07h-12.19v-23.08c0-14.56-9.71-22.69-24.27-22.69-11.29,0-20.71,5.45-25.66,13.08v32.69h-12.19v-53.2Z"/>
  </g>
</svg>