<svg id="header_logo" xmlns="http://www.w3.org/2000/svg" xmlns:xlink="http://www.w3.org/1999/xlink" width="416" height="80" viewBox="0 0 416 80">
  <defs>
    <clipPath id="clip-path">
      <rect id="長方形_24328" data-name="長方形 24328" width="120" height="18.568" fill="none"/>
    </clipPath>
    <clipPath id="clip-path-2">
      <rect id="長方形_24357" data-name="長方形 24357" width="199.438" height="18.568" fill="#fff"/>
    </clipPath>
  </defs>
  <path id="パス_57040" data-name="パス 57040" d="M0,0H416L383.752,80H0Z" fill="#0a3788"/>
  <g id="グループ_13642" data-name="グループ 13642" transform="translate(24 31)">
    <path id="パス_57035" data-name="パス 57035" d="M0,0V4.661H8.051V18.568h6.365V4.661H22.6V0Z" transform="translate(0 0)" fill="#fff"/>
    <g id="グループ_13641" data-name="グループ 13641" transform="translate(0 0)">
      <g id="グループ_13640" data-name="グループ 13640" clip-path="url(#clip-path)">
        <path id="パス_57036" data-name="パス 57036" d="M96.655,0V14.161h-.39c-2.1,0-3.092-.216-3.686-.813-.664-.664-.691-1.7-.691-3.34V0H72.824a2.525,2.525,0,0,0-2.605,1.495,3.992,3.992,0,0,0,.662,3.884l7.292,8.133.583.649H70.107v4.407H83.036a2.371,2.371,0,0,0,2.329-1.51,3.927,3.927,0,0,0-.971-4.168L77.978,5.4l-.551-.636h9.692v9a5,5,0,0,0,1.085,3.68c.775.78,2.035,1.122,4.074,1.122h8.943V0Z" transform="translate(-51.433 0)" fill="#fff"/>
        <path id="パス_57037" data-name="パス 57037" d="M226.212,0V14.161h-.4c-1.71,0-2.894-.059-3.6-.768-.638-.631-.771-1.7-.771-3.091V0H216.3V11.068a2.346,2.346,0,0,0,1.541,2.326l-.1.768h-6.293c-.625.018-.962.024-1.221-.232s-.267-.616-.259-1.334V10.009h.388c2.026,0,2.571-.32,2.571-2.622V2.713c0-1.277-.135-1.967-.461-2.3C212.115.066,211.42,0,210.267,0H197.429V18.568H202.1V4.278h5.437V6.906h-2.72v6.86c0,2.041.328,3.323,1.031,4.032a3.363,3.363,0,0,0,2.471.771h22.357V0Z" transform="translate(-145.112 0)" fill="#fff"/>
        <path id="パス_57038" data-name="パス 57038" d="M342.807,5.25v.172a2.487,2.487,0,0,1-.47,1.9,2.654,2.654,0,0,1-1.971.554,3.009,3.009,0,0,1-2.206-.649,2.324,2.324,0,0,1-.517-1.777V0h-4.615V7.434c0,1.657.272,2.668.88,3.272s1.6.863,3.254.863h.388v7H342.9V11.763h.388c3.279,0,4.179-.9,4.179-4.184V0h-4.659Z" transform="translate(-244.779 -0.001)" fill="#fff"/>
        <path id="パス_57039" data-name="パス 57039" d="M401.742,18.568V11.477H406.8v7.091h5.05V4.179c0-1.838-.253-2.866-.81-3.441A3.837,3.837,0,0,0,408.261,0H397.076V18.568Zm0-11.182V3.84H406.9V7.772h-5.155Z" transform="translate(-291.854 0)" fill="#fff"/>
      </g>
    </g>
  </g>
  <g id="グループ_13680" data-name="グループ 13680" transform="translate(168 31)">
    <g id="グループ_13679" data-name="グループ 13679" transform="translate(0 0)" clip-path="url(#clip-path-2)">
      <path id="パス_57090" data-name="パス 57090" d="M4,2.269V1.028H6.97V2.269h3.978V1.028H13.96V2.269H18V4.828H13.96V5.892H10.869V4.828H6.97v.906H10.4a8,8,0,0,1-.748,1.477H18V9.79H8.171l-.807,1.1h9.274v4.864c0,2.323-.728,3.013-3.288,3.032H2.54V14.654A21.674,21.674,0,0,1,0,15.914V12.528A13.828,13.828,0,0,0,4.155,9.79H.433V7.211H6.045a5.924,5.924,0,0,0,.67-1.319H4V4.828H0V2.269Zm9.255,11.4H5.67V15.7h7.581Z" transform="translate(0 -0.634)" fill="#fff"/>
      <path id="パス_57091" data-name="パス 57091" d="M58.628,10.557V8.765h-6.34V5.831h6.34V4.137l-1.91.04-2.954.059H51.933V1.185c1.654.039,2.442.039,3.485.039a81.445,81.445,0,0,0,12.8-.709V3.586C65.854,3.8,64.594,3.9,62.211,4V5.831h6.458V8.765H62.211v1.792h6.951v2.993H62.211v2.265c-.039,2.126-.709,2.658-3.386,2.7H55.379V15.44h3.249V13.549H51.362V10.557Z" transform="translate(-31.7 -0.318)" fill="#fff"/>
      <path id="パス_57092" data-name="パス 57092" d="M115.262,2.6v.925h1.5a1.9,1.9,0,0,1,2.126,2.068V17.426H103.113V14.177H115.36V7.62c.059-1.4-.276-1.811-1.5-1.851H103.113V2.6Zm2.422.453h-1.851V0h1.851ZM118.255,0h1.871V3.052h-1.871Z" transform="translate(-63.641 0)" fill="#fff"/>
      <path id="パス_57093" data-name="パス 57093" d="M156.715,2.521v8.565c.079,5-2.048,8.053-5.986,8.565V15.911c1.91-.572,2.52-1.635,2.639-4.509V2.521Zm2.166,0h3.406V15.5c2.737-.138,3.092-.63,3.131-4.47V6.42h3.308V11.5c0,3.308-.394,4.785-1.595,5.927-1.26,1.162-2.7,1.595-5.277,1.615h-2.973Z" transform="translate(-93.029 -1.556)" fill="#fff"/>
      <path id="パス_57094" data-name="パス 57094" d="M203.8,4.783H219.65v5.769c-.039,3.722-.591,6.006-1.792,7.5-1.477,1.91-3.879,2.776-7.62,2.776h-5.572V17.365h5.12c2.855-.02,3.918-.315,4.8-1.339.926-.965,1.26-2.383,1.339-5.533V8.131H203.8Z" transform="translate(-125.784 -2.952)" fill="#fff"/>
      <path id="パス_57095" data-name="パス 57095" d="M253.4,8.025h15.417V10.92c0,3.406-1.989,5.789-4.8,5.71H262.32a6.289,6.289,0,0,1-1.753,4.765c-.867.886-2.52,1.359-4.863,1.418H253.44V19.741h1.87c2.5.079,3.525-.748,3.564-2.855V13.637h3.564c1.989.04,2.8-.531,2.855-2.048V11H253.4Z" transform="translate(-156.398 -4.953)" fill="#fff"/>
      <rect id="長方形_24356" data-name="長方形 24356" width="16.126" height="3.348" transform="translate(115.195 7.718)" fill="#fff"/>
      <path id="パス_57096" data-name="パス 57096" d="M350.326,5.694V2.917H355.6l.728-1.476h3.525l-.591,1.476h6.183V5.694h-7.9l-.807,1.437a5.382,5.382,0,0,1,2.737-.886,2.391,2.391,0,0,1,2.205,1.28,4.243,4.243,0,0,1,.275,2.068l4.45-.473v3.15l-4.45.335v2.5h-3.347v-1.93c-2.2.571-2.894,1.044-2.894,1.969,0,.887.512,1.123,2.481,1.123,1.989,0,4.627-.1,7.167-.276v3.131c-1.4.039-1.929.059-2.875.059-5.316,0-6.734-.079-7.876-.472a3.565,3.565,0,0,1-2.225-2.225,3.3,3.3,0,0,1-.256-1.28,4.269,4.269,0,0,1,2.442-3.466,13.2,13.2,0,0,1,4.037-1.5,2.373,2.373,0,0,0-.157-1.142.9.9,0,0,0-.807-.433c-1.162,0-2.422.787-3.663,2.343h-3.8a42.656,42.656,0,0,0,3.682-5.316Z" transform="translate(-216.135 -0.889)" fill="#fff"/>
      <path id="パス_57097" data-name="パス 57097" d="M404.653,3.039v-1.5h3.426v1.5h6.655V5.914H401.089v5.14c-.02,4.9-1.28,7.246-4.391,8.289v-4c1.064-.945,1.2-1.536,1.28-5.789V3.039Zm.472,8.073a27.192,27.192,0,0,1-1.319,7.7H400.44a21.308,21.308,0,0,0,1.6-7.7Zm6.931-.787A45.266,45.266,0,0,0,403.668,9.2V6.5a65.888,65.888,0,0,1,8.389.886Zm-3.013.078v6.064h2.8a3.645,3.645,0,0,0,2.895-1.122v3.229a4.882,4.882,0,0,1-3.288.847L409,19.4c-2.6,0-3.111-.512-3.091-3.032V10.4Zm5.159,4.922c-1.733-.532-2.737-.807-4.371-1.161V11.329c1.831.335,2.757.551,4.371.965Z" transform="translate(-244.841 -0.952)" fill="#fff"/>
      <path id="パス_57098" data-name="パス 57098" d="M450.468,9.612V6.856h-1.437V3.981h1.437V.791h3.091v3.19h1.28V6.856h-1.28V9.081l1.28-.256v2.737l-1.28.413v3.977c.039,1.91-.472,2.461-2.324,2.54h-2.205V15.854h1.437V12.585l-1.437.2V9.809Zm4.962,1.26V8.628h2.244l.039-.493h-2.284V5.891h.925l-.768-1.713H458.5l.67,1.713h.63l-.572-1.713h2.8l.532,1.713h.118l.866-1.713h3.23l-1.024,1.713h1.122V8.135h-5.986l-.059.493h6.045v2.245h-6.34l-.138.67h6.143v2.284a14.993,14.993,0,0,1-1.457,1.575,7.2,7.2,0,0,0,1.792.433v3.131a15.308,15.308,0,0,1-4.45-1.516,12.382,12.382,0,0,1-4.686,1.6v-2.56a11.452,11.452,0,0,1-3.052,2.107V15.125c1.792-1.122,2.225-1.811,2.658-4.253ZM466.5,3.252a59.547,59.547,0,0,1-9.609.452l-1.378.02v-2.5c6.773,0,7.66-.039,10.987-.453Zm-7.325,11.479a10.2,10.2,0,0,1-1.1,1.4,7.6,7.6,0,0,0,1.989-.452c-.374-.374-.453-.453-.886-.946m2.363-1.181a5.332,5.332,0,0,0,.925.768,3.672,3.672,0,0,0,.689-.768Z" transform="translate(-277.14 -0.476)" fill="#fff"/>
      <path id="パス_57099" data-name="パス 57099" d="M513.216,1.132l-.945,13.291h-3.032l-.847-13.291Zm-.571,17.957h-3.82V15.368h3.82Z" transform="translate(-313.778 -0.699)" fill="#fff"/>
    </g>
  </g>
</svg>
